<mxfile host="app.diagrams.net" modified="2023-09-28T19:11:50.234Z" agent="Mozilla/5.0 (X11; Linux x86_64; rv:109.0) Gecko/20100101 Firefox/114.0" etag="cI4tJEuOcwXw841qY_A0" version="22.0.0" type="github">
  <diagram name="Página-1" id="Z3-ALko1RFqqL-5KXz5H">
    <mxGraphModel dx="1103" dy="578" grid="1" gridSize="10" guides="1" tooltips="1" connect="1" arrows="1" fold="1" page="1" pageScale="1" pageWidth="827" pageHeight="1169" math="0" shadow="0">
      <root>
        <mxCell id="0" />
        <mxCell id="1" parent="0" />
        <mxCell id="SB8inHblkI30D-7kMde6-1" value="Profesor" style="rounded=1;whiteSpace=wrap;html=1;fillColor=#dae8fc;strokeColor=#6c8ebf;" vertex="1" parent="1">
          <mxGeometry x="40" y="40" width="120" height="60" as="geometry" />
        </mxCell>
        <mxCell id="SB8inHblkI30D-7kMde6-2" value="Alumno" style="rounded=1;whiteSpace=wrap;html=1;fillColor=#f8cecc;strokeColor=#b85450;" vertex="1" parent="1">
          <mxGeometry x="40" y="120" width="120" height="60" as="geometry" />
        </mxCell>
        <mxCell id="SB8inHblkI30D-7kMde6-3" value="Módulo" style="rounded=1;whiteSpace=wrap;html=1;fillColor=#fff2cc;strokeColor=#d6b656;" vertex="1" parent="1">
          <mxGeometry x="40" y="200" width="120" height="60" as="geometry" />
        </mxCell>
        <mxCell id="SB8inHblkI30D-7kMde6-4" value="&lt;font style=&quot;font-size: 8px;&quot;&gt;Imparte&lt;/font&gt;" style="rhombus;whiteSpace=wrap;html=1;fillColor=#fff2cc;strokeColor=#d6b656;" vertex="1" parent="1">
          <mxGeometry x="200" y="100" width="40" height="40" as="geometry" />
        </mxCell>
        <mxCell id="SB8inHblkI30D-7kMde6-5" value="&lt;font style=&quot;font-size: 8px;&quot;&gt;Cursa&lt;/font&gt;" style="rhombus;whiteSpace=wrap;html=1;fillColor=#fff2cc;strokeColor=#d6b656;" vertex="1" parent="1">
          <mxGeometry x="200" y="180" width="40" height="40" as="geometry" />
        </mxCell>
        <mxCell id="SB8inHblkI30D-7kMde6-6" value="Profesor" style="rounded=1;whiteSpace=wrap;html=1;fillColor=#dae8fc;strokeColor=#6c8ebf;" vertex="1" parent="1">
          <mxGeometry x="120" y="390" width="120" height="60" as="geometry" />
        </mxCell>
        <mxCell id="SB8inHblkI30D-7kMde6-7" value="&lt;font style=&quot;font-size: 8px;&quot;&gt;Imparte&lt;/font&gt;" style="rhombus;whiteSpace=wrap;html=1;fillColor=#fff2cc;strokeColor=#d6b656;" vertex="1" parent="1">
          <mxGeometry x="280" y="400" width="40" height="40" as="geometry" />
        </mxCell>
        <mxCell id="SB8inHblkI30D-7kMde6-8" value="Módulo" style="rounded=1;whiteSpace=wrap;html=1;fillColor=#fff2cc;strokeColor=#d6b656;" vertex="1" parent="1">
          <mxGeometry x="360" y="390" width="120" height="60" as="geometry" />
        </mxCell>
        <mxCell id="SB8inHblkI30D-7kMde6-9" value="&lt;font style=&quot;font-size: 8px;&quot;&gt;Cursa&lt;/font&gt;" style="rhombus;whiteSpace=wrap;html=1;fillColor=#fff2cc;strokeColor=#d6b656;" vertex="1" parent="1">
          <mxGeometry x="520" y="400" width="40" height="40" as="geometry" />
        </mxCell>
        <mxCell id="SB8inHblkI30D-7kMde6-10" value="Alumno" style="rounded=1;whiteSpace=wrap;html=1;fillColor=#f8cecc;strokeColor=#b85450;" vertex="1" parent="1">
          <mxGeometry x="600" y="390" width="120" height="60" as="geometry" />
        </mxCell>
        <mxCell id="SB8inHblkI30D-7kMde6-11" value="" style="endArrow=none;html=1;rounded=0;entryX=0;entryY=0.5;entryDx=0;entryDy=0;" edge="1" parent="1" target="SB8inHblkI30D-7kMde6-7">
          <mxGeometry width="50" height="50" relative="1" as="geometry">
            <mxPoint x="240" y="420" as="sourcePoint" />
            <mxPoint x="290" y="370" as="targetPoint" />
          </mxGeometry>
        </mxCell>
        <mxCell id="SB8inHblkI30D-7kMde6-12" value="" style="endArrow=none;html=1;rounded=0;entryX=0;entryY=0.5;entryDx=0;entryDy=0;" edge="1" parent="1">
          <mxGeometry width="50" height="50" relative="1" as="geometry">
            <mxPoint x="320" y="419.76" as="sourcePoint" />
            <mxPoint x="360" y="419.76" as="targetPoint" />
          </mxGeometry>
        </mxCell>
        <mxCell id="SB8inHblkI30D-7kMde6-13" value="" style="endArrow=none;html=1;rounded=0;entryX=0;entryY=0.5;entryDx=0;entryDy=0;" edge="1" parent="1">
          <mxGeometry width="50" height="50" relative="1" as="geometry">
            <mxPoint x="480" y="419.76" as="sourcePoint" />
            <mxPoint x="520" y="419.76" as="targetPoint" />
          </mxGeometry>
        </mxCell>
        <mxCell id="SB8inHblkI30D-7kMde6-14" value="" style="endArrow=none;html=1;rounded=0;entryX=0;entryY=0.5;entryDx=0;entryDy=0;" edge="1" parent="1">
          <mxGeometry width="50" height="50" relative="1" as="geometry">
            <mxPoint x="560" y="419.76" as="sourcePoint" />
            <mxPoint x="600" y="419.76" as="targetPoint" />
          </mxGeometry>
        </mxCell>
        <mxCell id="SB8inHblkI30D-7kMde6-15" value="&lt;font style=&quot;font-size: 8px;&quot;&gt;DNI&lt;/font&gt;" style="ellipse;whiteSpace=wrap;html=1;fillColor=#f8cecc;strokeColor=#b85450;" vertex="1" parent="1">
          <mxGeometry x="200" y="320" width="40" height="40" as="geometry" />
        </mxCell>
        <mxCell id="SB8inHblkI30D-7kMde6-16" value="&lt;font style=&quot;font-size: 8px;&quot;&gt;Nombre&lt;/font&gt;" style="ellipse;whiteSpace=wrap;html=1;fillColor=#f8cecc;strokeColor=#b85450;" vertex="1" parent="1">
          <mxGeometry x="120" y="320" width="40" height="40" as="geometry" />
        </mxCell>
        <mxCell id="SB8inHblkI30D-7kMde6-17" value="&lt;font style=&quot;font-size: 8px;&quot;&gt;Dirección&lt;/font&gt;" style="ellipse;whiteSpace=wrap;html=1;fillColor=#f8cecc;strokeColor=#b85450;" vertex="1" parent="1">
          <mxGeometry x="200" y="480" width="40" height="40" as="geometry" />
        </mxCell>
        <mxCell id="SB8inHblkI30D-7kMde6-18" value="&lt;font style=&quot;font-size: 8px;&quot;&gt;Nº Teléfono&lt;br&gt;&lt;/font&gt;" style="ellipse;whiteSpace=wrap;html=1;fillColor=#f8cecc;strokeColor=#b85450;" vertex="1" parent="1">
          <mxGeometry x="120" y="480" width="40" height="40" as="geometry" />
        </mxCell>
        <mxCell id="SB8inHblkI30D-7kMde6-19" value="" style="endArrow=none;html=1;rounded=0;exitX=0.166;exitY=-0.001;exitDx=0;exitDy=0;exitPerimeter=0;" edge="1" parent="1" source="SB8inHblkI30D-7kMde6-6">
          <mxGeometry width="50" height="50" relative="1" as="geometry">
            <mxPoint x="90" y="410" as="sourcePoint" />
            <mxPoint x="140" y="360" as="targetPoint" />
          </mxGeometry>
        </mxCell>
        <mxCell id="SB8inHblkI30D-7kMde6-20" value="" style="endArrow=none;html=1;rounded=0;exitX=0.166;exitY=-0.001;exitDx=0;exitDy=0;exitPerimeter=0;" edge="1" parent="1">
          <mxGeometry width="50" height="50" relative="1" as="geometry">
            <mxPoint x="219.86" y="390" as="sourcePoint" />
            <mxPoint x="219.86" y="360" as="targetPoint" />
          </mxGeometry>
        </mxCell>
        <mxCell id="SB8inHblkI30D-7kMde6-22" value="" style="endArrow=none;html=1;rounded=0;exitX=0.166;exitY=-0.001;exitDx=0;exitDy=0;exitPerimeter=0;" edge="1" parent="1">
          <mxGeometry width="50" height="50" relative="1" as="geometry">
            <mxPoint x="219.86" y="480" as="sourcePoint" />
            <mxPoint x="219.86" y="450" as="targetPoint" />
          </mxGeometry>
        </mxCell>
        <mxCell id="SB8inHblkI30D-7kMde6-23" value="" style="endArrow=none;html=1;rounded=0;exitX=0.166;exitY=-0.001;exitDx=0;exitDy=0;exitPerimeter=0;" edge="1" parent="1">
          <mxGeometry width="50" height="50" relative="1" as="geometry">
            <mxPoint x="139.86" y="480" as="sourcePoint" />
            <mxPoint x="139.86" y="450" as="targetPoint" />
          </mxGeometry>
        </mxCell>
        <mxCell id="SB8inHblkI30D-7kMde6-25" value="&lt;font style=&quot;font-size: 8px;&quot;&gt;Apellidos&lt;/font&gt;" style="ellipse;whiteSpace=wrap;html=1;fillColor=#dae8fc;strokeColor=#6c8ebf;" vertex="1" parent="1">
          <mxGeometry x="680" y="320" width="40" height="40" as="geometry" />
        </mxCell>
        <mxCell id="SB8inHblkI30D-7kMde6-26" value="&lt;font style=&quot;font-size: 8px;&quot;&gt;Nombre&lt;/font&gt;" style="ellipse;whiteSpace=wrap;html=1;fillColor=#dae8fc;strokeColor=#6c8ebf;" vertex="1" parent="1">
          <mxGeometry x="600" y="320" width="40" height="40" as="geometry" />
        </mxCell>
        <mxCell id="SB8inHblkI30D-7kMde6-27" value="&lt;font style=&quot;font-size: 8px;&quot;&gt;Fecha nacimiento&lt;br&gt;&lt;/font&gt;" style="ellipse;whiteSpace=wrap;html=1;fillColor=#dae8fc;strokeColor=#6c8ebf;" vertex="1" parent="1">
          <mxGeometry x="680" y="480" width="40" height="40" as="geometry" />
        </mxCell>
        <mxCell id="SB8inHblkI30D-7kMde6-28" value="&lt;font style=&quot;font-size: 8px;&quot;&gt;Expediente&lt;/font&gt;" style="ellipse;whiteSpace=wrap;html=1;fillColor=#dae8fc;strokeColor=#6c8ebf;" vertex="1" parent="1">
          <mxGeometry x="600" y="480" width="40" height="40" as="geometry" />
        </mxCell>
        <mxCell id="SB8inHblkI30D-7kMde6-29" value="" style="endArrow=none;html=1;rounded=0;exitX=0.166;exitY=-0.001;exitDx=0;exitDy=0;exitPerimeter=0;" edge="1" parent="1">
          <mxGeometry width="50" height="50" relative="1" as="geometry">
            <mxPoint x="619.9200000000001" y="389.94000000000005" as="sourcePoint" />
            <mxPoint x="620" y="360" as="targetPoint" />
          </mxGeometry>
        </mxCell>
        <mxCell id="SB8inHblkI30D-7kMde6-30" value="" style="endArrow=none;html=1;rounded=0;exitX=0.166;exitY=-0.001;exitDx=0;exitDy=0;exitPerimeter=0;" edge="1" parent="1">
          <mxGeometry width="50" height="50" relative="1" as="geometry">
            <mxPoint x="699.86" y="390" as="sourcePoint" />
            <mxPoint x="699.86" y="360" as="targetPoint" />
          </mxGeometry>
        </mxCell>
        <mxCell id="SB8inHblkI30D-7kMde6-31" value="" style="endArrow=none;html=1;rounded=0;exitX=0.166;exitY=-0.001;exitDx=0;exitDy=0;exitPerimeter=0;" edge="1" parent="1">
          <mxGeometry width="50" height="50" relative="1" as="geometry">
            <mxPoint x="699.86" y="480" as="sourcePoint" />
            <mxPoint x="699.86" y="450" as="targetPoint" />
          </mxGeometry>
        </mxCell>
        <mxCell id="SB8inHblkI30D-7kMde6-32" value="" style="endArrow=none;html=1;rounded=0;exitX=0.166;exitY=-0.001;exitDx=0;exitDy=0;exitPerimeter=0;" edge="1" parent="1">
          <mxGeometry width="50" height="50" relative="1" as="geometry">
            <mxPoint x="619.86" y="480" as="sourcePoint" />
            <mxPoint x="619.86" y="450" as="targetPoint" />
          </mxGeometry>
        </mxCell>
        <mxCell id="SB8inHblkI30D-7kMde6-33" value="&lt;font style=&quot;font-size: 8px;&quot;&gt;Nombre&lt;/font&gt;" style="ellipse;whiteSpace=wrap;html=1;fillColor=#dae8fc;strokeColor=#6c8ebf;" vertex="1" parent="1">
          <mxGeometry x="400" y="320" width="40" height="40" as="geometry" />
        </mxCell>
        <mxCell id="SB8inHblkI30D-7kMde6-34" value="&lt;font style=&quot;font-size: 8px;&quot;&gt;Código&lt;/font&gt;" style="ellipse;whiteSpace=wrap;html=1;fillColor=#f8cecc;strokeColor=#b85450;" vertex="1" parent="1">
          <mxGeometry x="400" y="480" width="40" height="40" as="geometry" />
        </mxCell>
        <mxCell id="SB8inHblkI30D-7kMde6-35" value="" style="endArrow=none;html=1;rounded=0;exitX=0.166;exitY=-0.001;exitDx=0;exitDy=0;exitPerimeter=0;" edge="1" parent="1">
          <mxGeometry width="50" height="50" relative="1" as="geometry">
            <mxPoint x="419.9200000000001" y="389.94000000000005" as="sourcePoint" />
            <mxPoint x="420" y="360" as="targetPoint" />
          </mxGeometry>
        </mxCell>
        <mxCell id="SB8inHblkI30D-7kMde6-36" value="" style="endArrow=none;html=1;rounded=0;exitX=0.166;exitY=-0.001;exitDx=0;exitDy=0;exitPerimeter=0;" edge="1" parent="1">
          <mxGeometry width="50" height="50" relative="1" as="geometry">
            <mxPoint x="419.86" y="480" as="sourcePoint" />
            <mxPoint x="419.86" y="450" as="targetPoint" />
          </mxGeometry>
        </mxCell>
        <mxCell id="SB8inHblkI30D-7kMde6-37" value="1:n" style="text;html=1;strokeColor=none;fillColor=none;align=center;verticalAlign=middle;whiteSpace=wrap;rounded=0;" vertex="1" parent="1">
          <mxGeometry x="230" y="390" width="60" height="30" as="geometry" />
        </mxCell>
        <mxCell id="SB8inHblkI30D-7kMde6-38" value="n:1" style="text;html=1;strokeColor=none;fillColor=none;align=center;verticalAlign=middle;whiteSpace=wrap;rounded=0;" vertex="1" parent="1">
          <mxGeometry x="540" y="390" width="60" height="30" as="geometry" />
        </mxCell>
        <mxCell id="SB8inHblkI30D-7kMde6-39" value="1:1" style="text;html=1;strokeColor=none;fillColor=none;align=center;verticalAlign=middle;whiteSpace=wrap;rounded=0;" vertex="1" parent="1">
          <mxGeometry x="310" y="390" width="60" height="30" as="geometry" />
        </mxCell>
        <mxCell id="SB8inHblkI30D-7kMde6-40" value="1:n" style="text;html=1;strokeColor=none;fillColor=none;align=center;verticalAlign=middle;whiteSpace=wrap;rounded=0;" vertex="1" parent="1">
          <mxGeometry x="470" y="390" width="60" height="30" as="geometry" />
        </mxCell>
        <mxCell id="SB8inHblkI30D-7kMde6-42" value="n:1" style="text;html=1;strokeColor=none;fillColor=none;align=center;verticalAlign=middle;whiteSpace=wrap;rounded=0;" vertex="1" parent="1">
          <mxGeometry x="270" y="360" width="60" height="30" as="geometry" />
        </mxCell>
        <mxCell id="SB8inHblkI30D-7kMde6-43" value="n:n" style="text;html=1;strokeColor=none;fillColor=none;align=center;verticalAlign=middle;whiteSpace=wrap;rounded=0;" vertex="1" parent="1">
          <mxGeometry x="510" y="360" width="60" height="30" as="geometry" />
        </mxCell>
        <mxCell id="SB8inHblkI30D-7kMde6-54" value="" style="endArrow=none;html=1;rounded=0;" edge="1" parent="1" source="SB8inHblkI30D-7kMde6-64">
          <mxGeometry width="50" height="50" relative="1" as="geometry">
            <mxPoint x="660" y="390" as="sourcePoint" />
            <mxPoint x="660" y="280" as="targetPoint" />
          </mxGeometry>
        </mxCell>
        <mxCell id="SB8inHblkI30D-7kMde6-55" value="Curso" style="rounded=1;whiteSpace=wrap;html=1;fillColor=#fff2cc;strokeColor=#d6b656;" vertex="1" parent="1">
          <mxGeometry x="600" y="220" width="120" height="60" as="geometry" />
        </mxCell>
        <mxCell id="SB8inHblkI30D-7kMde6-56" value="&lt;font style=&quot;font-size: 8px;&quot;&gt;Alumnos&lt;/font&gt;" style="ellipse;whiteSpace=wrap;html=1;fillColor=#dae8fc;strokeColor=#6c8ebf;" vertex="1" parent="1">
          <mxGeometry x="610" y="150.06" width="40" height="40" as="geometry" />
        </mxCell>
        <mxCell id="SB8inHblkI30D-7kMde6-57" value="" style="endArrow=none;html=1;rounded=0;exitX=0.166;exitY=-0.001;exitDx=0;exitDy=0;exitPerimeter=0;" edge="1" parent="1">
          <mxGeometry width="50" height="50" relative="1" as="geometry">
            <mxPoint x="629.9200000000001" y="220.00000000000006" as="sourcePoint" />
            <mxPoint x="630" y="190.06" as="targetPoint" />
          </mxGeometry>
        </mxCell>
        <mxCell id="SB8inHblkI30D-7kMde6-58" value="&lt;font style=&quot;font-size: 8px;&quot;&gt;Delegado&lt;/font&gt;" style="ellipse;whiteSpace=wrap;html=1;fillColor=#f8cecc;strokeColor=#b85450;" vertex="1" parent="1">
          <mxGeometry x="670" y="150.06" width="40" height="40" as="geometry" />
        </mxCell>
        <mxCell id="SB8inHblkI30D-7kMde6-59" value="" style="endArrow=none;html=1;rounded=0;exitX=0.166;exitY=-0.001;exitDx=0;exitDy=0;exitPerimeter=0;" edge="1" parent="1">
          <mxGeometry width="50" height="50" relative="1" as="geometry">
            <mxPoint x="689.9200000000001" y="220.00000000000006" as="sourcePoint" />
            <mxPoint x="690" y="190.06" as="targetPoint" />
          </mxGeometry>
        </mxCell>
        <mxCell id="SB8inHblkI30D-7kMde6-61" value="&lt;font style=&quot;font-size: 8px;&quot;&gt;Pertenece&lt;/font&gt;" style="rhombus;whiteSpace=wrap;html=1;fillColor=#fff2cc;strokeColor=#d6b656;" vertex="1" parent="1">
          <mxGeometry x="640" y="320" width="40" height="40" as="geometry" />
        </mxCell>
        <mxCell id="SB8inHblkI30D-7kMde6-63" value="" style="endArrow=none;html=1;rounded=0;" edge="1" parent="1" target="SB8inHblkI30D-7kMde6-62">
          <mxGeometry width="50" height="50" relative="1" as="geometry">
            <mxPoint x="660" y="390" as="sourcePoint" />
            <mxPoint x="660" y="280" as="targetPoint" />
          </mxGeometry>
        </mxCell>
        <mxCell id="SB8inHblkI30D-7kMde6-62" value="n:1" style="text;html=1;strokeColor=none;fillColor=none;align=center;verticalAlign=middle;whiteSpace=wrap;rounded=0;" vertex="1" parent="1">
          <mxGeometry x="630" y="360" width="60" height="30" as="geometry" />
        </mxCell>
        <mxCell id="SB8inHblkI30D-7kMde6-64" value="1:n" style="text;html=1;strokeColor=none;fillColor=none;align=center;verticalAlign=middle;whiteSpace=wrap;rounded=0;" vertex="1" parent="1">
          <mxGeometry x="630" y="280" width="60" height="30" as="geometry" />
        </mxCell>
        <mxCell id="SB8inHblkI30D-7kMde6-66" value="n:n" style="text;html=1;strokeColor=none;fillColor=none;align=center;verticalAlign=middle;whiteSpace=wrap;rounded=0;" vertex="1" parent="1">
          <mxGeometry x="630" y="310" width="60" height="30" as="geometry" />
        </mxCell>
      </root>
    </mxGraphModel>
  </diagram>
</mxfile>
